<svg id="Capa_1" data-name="Capa 1" xmlns="http://www.w3.org/2000/svg" viewBox="0 0 502.91 557.01"><defs><style>.cls-1{fill:#606060;}</style></defs><path class="cls-1" d="M775.81,310h112.3c.7.46,10.91,7.39,10.8,20.12-.12,12.46-10,19.19-10.8,19.7H775.81c-.84-.56-10.55-7.31-10.66-19.7C765,317.47,775.05,310.5,775.81,310Z" transform="translate(-765 -309.99)"/><path class="cls-1" d="M882.43,382.2H994.21c.56.32,11.49,6.74,11.81,19.53a23.19,23.19,0,0,1-11.81,20.72H882.43c-.74-.45-11-7-11.34-19.53C870.76,389.63,882,382.49,882.43,382.2Z" transform="translate(-765 -309.99)"/><path class="cls-1" d="M894.62,478.79h111.26a22.49,22.49,0,0,1,0,40.24H894.62c-1-.63-10.38-6.72-11.25-18.34A24,24,0,0,1,894.62,478.79Z" transform="translate(-765 -309.99)"/><path class="cls-1" d="M895.11,653.38h112.45c.55.41,11.35,8.64,10.06,21.9-1,10.46-8.82,16.26-10.06,17.16H895.11c-.46-.27-11.25-6.79-11.25-19.53S894.65,653.65,895.11,653.38Z" transform="translate(-765 -309.99)"/><path class="cls-1" d="M851.25,752.75H962.82a22.62,22.62,0,0,1,12.43,21.83c-1,12-11.8,17.68-12.43,18H851.25c-.85-.55-10.56-7-10.94-19.17C839.91,760.33,850.69,753.12,851.25,752.75Z" transform="translate(-765 -309.99)"/><path class="cls-1" d="M927.76,827.18h111.57A22.61,22.61,0,0,1,1051.75,849c-1,12-11.8,17.68-12.42,18H927.76c-.86-.55-10.57-7-10.94-19.18C916.41,834.76,927.19,827.54,927.76,827.18Z" transform="translate(-765 -309.99)"/><path class="cls-1" d="M891.39,827.18H783.27c-1.34.48-16.08,5.92-18,17.24-1.58,9,5.57,18,18,22.58H891.39c10.87-4.71,17.16-12.9,16.37-21.4C906.67,834,892.86,827.81,891.39,827.18Z" transform="translate(-765 -309.99)"/><path class="cls-1" d="M1080.9,320.65a251.25,251.25,0,0,1,107.95,61.55,22.27,22.27,0,0,1-26.28,29.59,283.39,283.39,0,0,0-95.28-55c-6.31-7-7.68-17-3.55-24.85C1068.91,322.06,1080,320.74,1080.9,320.65Z" transform="translate(-765 -309.99)"/><path class="cls-1" d="M1245.25,468.41a21.22,21.22,0,0,0-36,15.62,231.88,231.88,0,0,1,11.86,151c.27,1,3.34,11.71,14,15.59a23,23,0,0,0,24.34-6,272.71,272.71,0,0,0-14.22-176.15Z" transform="translate(-765 -309.99)"/><path class="cls-1" d="M1205.45,678.22c1.09-1.11,7.86-7.75,17.75-7.11,9.31.61,17.6,7.42,20.72,17.17a202.67,202.67,0,0,1-23.08,57.4,21.34,21.34,0,0,1-34.33-20.12c3.2-6.63,6.39-13.73,9.47-21.3C1199.68,695.17,1202.8,686.46,1205.45,678.22Z" transform="translate(-765 -309.99)"/><path class="cls-1" d="M1102.49,802.4a136.85,136.85,0,0,1-21.9,11.24,135.18,135.18,0,0,1-20.71,6.51,22.87,22.87,0,0,0-4.14,25.45c5.34,11,17.66,12.36,18.34,12.43a186.76,186.76,0,0,0,48.21-20.63,23.52,23.52,0,0,0-.27-23.76C1115.54,802.94,1103.33,802.42,1102.49,802.4Z" transform="translate(-765 -309.99)"/><path class="cls-1" d="M1080.59,400.55A206.58,206.58,0,0,1,1188.31,526a20.61,20.61,0,0,1-36.7,11.83,171.67,171.67,0,0,0-88.77-103,22.09,22.09,0,0,1,17.75-34.32Z" transform="translate(-765 -309.99)"/><path class="cls-1" d="M1158.72,569.81a21.13,21.13,0,0,1,37.87-2.37,192.49,192.49,0,0,1-7.1,84,22.77,22.77,0,0,1-23.67,5.92c-10.76-3.73-13.93-14.41-14.21-15.39a190.67,190.67,0,0,0,7.11-72.2Z" transform="translate(-765 -309.99)"/><path class="cls-1" d="M1138.59,669.24c1.09-.77,9.75-6.69,20.13-3.55,8.75,2.64,15.19,10.67,16.28,20.33a203.58,203.58,0,0,1-56.53,68.44,22.14,22.14,0,0,1-28.41-29.59,165.18,165.18,0,0,0,48.53-55.63Z" transform="translate(-765 -309.99)"/><circle class="cls-1" cx="268.84" cy="95.88" r="19.53"/><circle class="cls-1" cx="431" cy="119.56" r="19.53"/><circle class="cls-1" cx="404.18" cy="472.77" r="19.53"/><circle class="cls-1" cx="305.53" cy="450.98" r="19.53"/><path class="cls-1" d="M927.86,310h112.3c.7.46,10.91,7.39,10.8,20.12-.12,12.47-10,19.19-10.8,19.7H927.86c-.83-.56-10.55-7.31-10.66-19.7C917.09,317.46,927.1,310.5,927.86,310Z" transform="translate(-765 -309.99)"/><path class="cls-1" d="M1074,486a18.72,18.72,0,1,0-21,31c1.89,1.48,36.3,29.41,31,74-5,42.17-41,61.48-44,63-5,7.72-6,17.12-2,24,5.74,10,21.56,14.13,35,6,5.68-4.53,46.9-38.55,48-97C1122.14,526.44,1079.27,490.29,1074,486Z" transform="translate(-765 -309.99)"/></svg>