<svg id="Capa_1" data-name="Capa 1" xmlns="http://www.w3.org/2000/svg" viewBox="0 0 506.31 557"><defs><style>.cls-1{fill:#fff;}</style></defs><path class="cls-1" d="M899.81,230h112.3c.7.46,10.91,7.39,10.8,20.12-.12,12.46-10,19.19-10.8,19.7H899.81c-.84-.56-10.55-7.31-10.66-19.7C889,237.47,899.05,230.5,899.81,230Z" transform="translate(-888.56 -230)"/><path class="cls-1" d="M1043.5,230h40.62c.77.54,10.82,7.9,10.4,20.71-.39,11.83-9.38,18.39-10.4,19.11H1043.5c-.77-.53-10.73-7.61-10.53-20.29C1033.16,237.32,1042.6,230.62,1043.5,230Z" transform="translate(-888.56 -230)"/><path class="cls-1" d="M1115.7,230h40.63c.76.54,10.81,7.9,10.39,20.71-.39,11.83-9.37,18.39-10.39,19.11H1115.7c-.77-.53-10.73-7.61-10.53-20.29C1105.36,237.32,1114.8,230.62,1115.7,230Z" transform="translate(-888.56 -230)"/><path class="cls-1" d="M1006.43,302.2h111.78c.56.32,11.49,6.74,11.81,19.53a23.19,23.19,0,0,1-11.81,20.72H1006.43c-.74-.45-11-7-11.34-19.53C994.76,309.63,1006,302.49,1006.43,302.2Z" transform="translate(-888.56 -230)"/><path class="cls-1" d="M974.53,376.65h41.34c.78.55,11,7.9,10.57,20.72-.39,11.83-9.53,18.38-10.57,19.1H974.53c-.79-.53-10.92-7.61-10.72-20.29C964,384,973.61,377.27,974.53,376.65Z" transform="translate(-888.56 -230)"/><path class="cls-1" d="M1014.62,447.79h111.26a22.49,22.49,0,0,1,0,40.24H1014.62c-1-.63-10.38-6.72-11.25-18.34A24,24,0,0,1,1014.62,447.79Z" transform="translate(-888.56 -230)"/><path class="cls-1" d="M1037.11,593.38h112.45c.55.41,11.35,8.64,10.06,21.9-1,10.46-8.82,16.26-10.06,17.16H1037.11c-.46-.27-11.25-6.79-11.25-19.53S1036.65,593.65,1037.11,593.38Z" transform="translate(-888.56 -230)"/><path class="cls-1" d="M975.25,672.75h111.57a22.62,22.62,0,0,1,12.43,21.83c-1,12-11.8,17.68-12.43,18H975.25c-.85-.55-10.56-7-10.94-19.17C963.91,680.33,974.69,673.12,975.25,672.75Z" transform="translate(-888.56 -230)"/><path class="cls-1" d="M1051.76,747.18h111.57A22.61,22.61,0,0,1,1175.75,769c-1,12-11.8,17.68-12.42,18H1051.76c-.86-.55-10.57-7-10.94-19.18C1040.41,754.76,1051.19,747.54,1051.76,747.18Z" transform="translate(-888.56 -230)"/><path class="cls-1" d="M1020.77,747.18H948.05c-.9.48-10.81,5.92-12.14,17.24A23,23,0,0,0,948.05,787h72.72a23.79,23.79,0,0,0,11-21.4C1031.05,754,1021.76,747.81,1020.77,747.18Z" transform="translate(-888.56 -230)"/><path class="cls-1" d="M1196.9,240.65a251.25,251.25,0,0,1,107.95,61.55,22.27,22.27,0,0,1-26.28,29.59,283.39,283.39,0,0,0-95.28-55c-6.31-7-7.68-17-3.55-24.85C1184.91,242.06,1196,240.74,1196.9,240.65Z" transform="translate(-888.56 -230)"/><path class="cls-1" d="M1360.84,375a21.21,21.21,0,0,0-34.33,18.93,231.76,231.76,0,0,1,26,149.14c.37,1,4.44,11.35,15.39,14.21a23,23,0,0,0,23.67-8.29,272.57,272.57,0,0,0-30.77-174Z" transform="translate(-888.56 -230)"/><path class="cls-1" d="M1345.45,576.22c1.09-1.11,7.86-7.75,17.75-7.11,9.31.61,17.6,7.42,20.72,17.17a202.67,202.67,0,0,1-23.08,57.4,21.34,21.34,0,0,1-34.33-20.12c3.2-6.63,6.39-13.73,9.47-21.3C1339.68,593.17,1342.8,584.46,1345.45,576.22Z" transform="translate(-888.56 -230)"/><path class="cls-1" d="M1226.49,722.4a136.85,136.85,0,0,1-21.9,11.24,135.18,135.18,0,0,1-20.71,6.51,22.87,22.87,0,0,0-4.14,25.45c5.34,11,17.66,12.36,18.34,12.43a186.76,186.76,0,0,0,48.21-20.63,23.52,23.52,0,0,0-.27-23.76C1239.54,722.94,1227.33,722.42,1226.49,722.4Z" transform="translate(-888.56 -230)"/><path class="cls-1" d="M1204.59,320.55A206.58,206.58,0,0,1,1312.31,446a20.61,20.61,0,0,1-36.7,11.83,171.67,171.67,0,0,0-88.77-103,22.09,22.09,0,0,1,17.75-34.32Z" transform="translate(-888.56 -230)"/><path class="cls-1" d="M1282.72,489.81a21.13,21.13,0,0,1,37.87-2.37,192.49,192.49,0,0,1-7.1,84,22.77,22.77,0,0,1-23.67,5.92c-10.76-3.73-13.93-14.41-14.21-15.39a190.67,190.67,0,0,0,7.11-72.2Z" transform="translate(-888.56 -230)"/><path class="cls-1" d="M1262.59,589.24c1.09-.77,9.75-6.69,20.13-3.55,8.75,2.64,15.19,10.67,16.28,20.33a203.58,203.58,0,0,1-56.53,68.44,22.14,22.14,0,0,1-28.41-29.59,165.18,165.18,0,0,0,48.53-55.63Z" transform="translate(-888.56 -230)"/><path class="cls-1" d="M1201,456.67c.06-.9,1-12.22,10.66-17.76,8-4.58,18.64-3.24,26,3.55,5,9.78,21.36,44.55,11.83,88.78-10.5,48.76-45,74.66-53.26,80.49a24.1,24.1,0,0,1-24.86-4.74c-9.65-8.94-7.24-21.81-7.1-22.49,5.72-3,33.81-18.49,45-53.26C1221.58,493.12,1203.92,461.61,1201,456.67Z" transform="translate(-888.56 -230)"/><circle class="cls-1" cx="269.28" cy="95.88" r="19.53"/><circle class="cls-1" cx="431.44" cy="119.55" r="19.53"/><circle class="cls-1" cx="304.79" cy="189.38" r="19.53"/><circle class="cls-1" cx="260.99" cy="274.61" r="19.53"/><circle class="cls-1" cx="46.75" cy="165.71" r="19.53"/><circle class="cls-1" cx="19.53" cy="537.38" r="19.53"/><circle class="cls-1" cx="432.62" cy="436.77" r="19.53"/><circle class="cls-1" cx="305.97" cy="450.97" r="19.53"/><circle class="cls-1" cx="105.7" cy="382.89" r="19.53"/></svg>